{"title":"Salvador - 26 anni contro.avi","uid":4583579,"size":1473519616,"categoryP":"video","categoryS":"movies","magnet":"?xt=urn:btih:d15634b434dc95b35cc2d9443d7b3586dab04435&amp;dn=Salvador+-+26+anni+contro.avi&amp;tr=udp%3A%2F%2Ftracker.openbittorrent.com%3A80&amp;tr=udp%3A%2F%2Fopen.demonii.com%3A1337&amp;tr=udp%3A%2F%2Ftracker.coppersurfer.tk%3A6969&amp;tr=udp%3A%2F%2Fexodus.desync.com%3A6969","seeders":1,"leechers":1,"uploader":"stingolo","files":1,"time":1229529519,"description":"Salvador - 26 anni contro,[XviD - Ita Ac3 Esp Mp3][www.tntvillage.scambioetico.org]\n\nScheda del film\n\nTitolo:Salvador - 26 anni contro\nTitolo originale:Salvador - Puig Antich\nNazionalitÃƒÂ :Spagna, Regno Unito\nAnno:2006\nGenere:Drammatico\nRegia:Manuel Huerga\nProduzione:Future Films Ltd., Mediapro\nDistribuzione:Istituto Luce, Delta Pictures\nData di uscita:27 Aprile 2007 (cinema)\n\nCast\n\nDaniel BrÃƒÂ¼hl, Tristan Ulloa, Leonardo Sbaraglia, Joel Joan, Celso Bugallo, Mercedes Sampietro, Olalla Escribano, Carlota Olcina\n\nScheda tecnica (Mediainfo)\n\nGeneral\n\nComplete name                    : Salvador - 26 anni contro.avi\nFormat                           : AVI\nFormat/Info                      : Audio Video Interleave\nFile size                        : 1.37 GiB\nDuration                         : 2h 8mn\nOverall bit rate                 : 1 530 Kbps\nWriting application              : VirtualDubMod 1.5.4.1 (build 2178/release)\nWriting library                  : VirtualDubMod build 2178/release\n\nVideo\n\nFormat                           : MPEG-4 Visual\nFormat profile                   : Streaming Video@L1\nFormat settings, BVOP            : Yes\nFormat settings, QPel            : No\nFormat settings, GMC             : No warppoints\nFormat settings, Matrix          : Custom\nCodec ID                         : XVID\nCodec ID/Hint                    : XviD\nDuration                         : 2h 8mn\nBit rate                         : 953 Kbps\nWidth                            : 640 pixels\nHeight                           : 272 pixels\nDisplay aspect ratio             : 2.35\nFrame rate                       : 25.000 fps\nResolution                       : 24 bits\nColorimetry                      : 4:2:0\nScan type                        : Progressive\nBits/(Pixel*Frame)               : 0.219\nStream size                      : 875 MiB (62%)\nWriting library                  : XviD 1.2.0.dev47 (UTC 2006-11-01)\n\nAudio #1\n\nFormat                           : AC-3\nFormat/Info                      : Audio Coding 3\nCodec ID                         : 2000\nDuration                         : 2h 8mn\nBit rate mode                    : Constant\nBit rate                         : 448 Kbps\nChannel(s)                       : 6 channels\nChannel positions                : Front: L C R, Surround: L R, LFE\nSampling rate                    : 48.0 KHz\nStream size                      : 411 MiB (29%)\nAlignment                        : Aligned on interleaves\nInterleave, duration             : 96 ms (2.40 video frames)\nInterleave, preload duration     : 96 ms\nLanguage                         : Italiano\n\nAudio #2\n\nFormat                           : MPEG Audio\nFormat version                   : Version 1\nFormat profile                   : Layer 3\nCodec ID                         : 55\nCodec ID/Hint                    : MP3\nDuration                         : 2h 8mn\nBit rate mode                    : Variable\nBit rate                         : 114 Kbps\nMinimum bit rate                 : 128 Kbps\nChannel(s)                       : 2 channels\nSampling rate                    : 48.0 KHz\nResolution                       : 16 bits\nStream size                      : 105 MiB (7%)\nAlignment                        : Aligned on interleaves\nInterleave, duration             : 24 ms (0.60 video frame)\nInterleave, preload duration     : 161 ms\nWriting library                  : LAME3.97 \nEncoding settings                : ABR\nLanguage                         : EspaÃƒÂ±ol\n\n","torrent":{"xt":"urn:btih:d15634b434dc95b35cc2d9443d7b3586dab04435","amp;dn":"Salvador+-+26+anni+contro.avi","amp;tr":["udp%3A%2F%2Ftracker.openbittorrent.com%3A80","udp%3A%2F%2Fopen.demonii.com%3A1337","udp%3A%2F%2Ftracker.coppersurfer.tk%3A6969","udp%3A%2F%2Fexodus.desync.com%3A6969"],"infoHash":"d15634b434dc95b35cc2d9443d7b3586dab04435","infoHashBuffer":{"type":"Buffer","data":[209,86,52,180,52,220,149,179,92,194,217,68,61,123,53,134,218,176,68,53]},"announce":[],"urlList":[]}}